<?xml version="1.0" encoding="iso-8859-1"?>
<!-- Generator: Adobe Illustrator 19.0.0, SVG Export Plug-In . SVG Version: 6.00 Build 0)  -->
<svg version="1.1" id="Layer_1" xmlns="http://www.w3.org/2000/svg" xmlns:xlink="http://www.w3.org/1999/xlink" x="0px" y="0px"
	 viewBox="0 0 512 512" style="enable-background:new 0 0 512 512;" xml:space="preserve">
<g>
	<g>
		<path d="M160.185,65.063c-2.053-3.206-5.554-5.12-9.362-5.12c-0.062,0-0.122,0-0.184,0.002l-0.098,0.003
			c-17.075-0.048-30.952-13.992-30.952-31.125c0-4.547,0.962-8.938,2.863-13.054c1.602-3.471,1.322-7.462-0.748-10.672
			C119.646,1.905,116.152,0,112.302,0C83.063,0.133,59.274,24.065,59.274,53.348c0,29.418,23.899,53.352,53.275,53.352
			c20.691,0,39.677-12.164,48.366-30.982C162.516,72.258,162.243,68.275,160.185,65.063z M112.548,91.027
			c-20.734,0-37.602-16.903-37.602-37.68c0.001-18.368,13.249-33.755,30.658-37.031c-1.124,4.048-1.691,8.232-1.691,12.506
			c0,23.302,17.087,42.681,39.368,46.221C136.311,84.923,124.856,91.027,112.548,91.027z"/>
	</g>
</g>
<g>
	<g>
		<path d="M113.776,462.46H70.258c-4.328,0-7.837,3.509-7.837,7.837s3.509,7.837,7.837,7.837h43.517
			c4.329,0,7.838-3.509,7.838-7.837S118.104,462.46,113.776,462.46z"/>
	</g>
</g>
<g>
	<g>
		<path d="M287.442,462.46h-43.518c-4.328,0-7.837,3.509-7.837,7.837s3.509,7.837,7.837,7.837h43.518
			c4.329,0,7.837-3.509,7.837-7.837S291.771,462.46,287.442,462.46z"/>
	</g>
</g>
<g>
	<g>
		<path d="M198.01,462.46h-27.629c-4.328,0-7.837,3.509-7.837,7.837s3.509,7.837,7.837,7.837h27.629
			c4.328,0,7.837-3.509,7.837-7.837S202.338,462.46,198.01,462.46z"/>
	</g>
</g>
<g>
	<g>
		<path d="M351.174,462.46h-27.628c-4.329,0-7.837,3.509-7.837,7.837s3.508,7.837,7.837,7.837h27.628
			c4.328,0,7.837-3.509,7.837-7.837S355.504,462.46,351.174,462.46z"/>
	</g>
</g>
<g>
	<g>
		<path d="M441.169,462.46h-27.628c-4.329,0-7.837,3.509-7.837,7.837s3.508,7.837,7.837,7.837h27.628
			c4.329,0,7.837-3.509,7.837-7.837S445.497,462.46,441.169,462.46z"/>
	</g>
</g>
<g>
	<g>
		<path d="M154.012,496.327h-43.517c-4.328,0-7.837,3.509-7.837,7.837c0,4.328,3.509,7.837,7.837,7.837h43.517
			c4.328,0,7.837-3.509,7.837-7.837C161.848,499.835,158.34,496.327,154.012,496.327z"/>
	</g>
</g>
<g>
	<g>
		<path d="M326.831,496.327h-43.517c-4.329,0-7.837,3.509-7.837,7.837c0,4.328,3.508,7.837,7.837,7.837h43.518
			c4.329,0,7.837-3.509,7.837-7.837C334.668,499.835,331.159,496.327,326.831,496.327z"/>
	</g>
</g>
<g>
	<g>
		<path d="M237.398,496.327H209.77c-4.328,0-7.837,3.509-7.837,7.837c0,4.328,3.509,7.837,7.837,7.837h27.628
			c4.328,0,7.837-3.509,7.837-7.837C245.234,499.835,241.726,496.327,237.398,496.327z"/>
	</g>
</g>
<g>
	<g>
		<path d="M401.506,496.327h-27.628c-4.329,0-7.837,3.509-7.837,7.837c0,4.328,3.508,7.837,7.837,7.837h27.628
			c4.329,0,7.837-3.509,7.837-7.837C409.343,499.835,405.835,496.327,401.506,496.327z"/>
	</g>
</g>
<g>
	<g>
		<path d="M502.48,425.876h-59.628v-26.399h50.403c4.245,0,7.928-1.984,9.848-5.308c1.921-3.322,1.804-7.499-0.316-11.176
			l-8.6-14.924c-2.16-3.749-6.955-5.037-10.702-2.878c-3.751,2.161-5.038,6.953-2.878,10.703l4.557,7.91h-91.44l-23.135-40.147
			l7.404-12.85h76.632l9.726,16.878c2.16,3.75,6.952,5.036,10.702,2.878c3.75-2.161,5.039-6.953,2.878-10.703l-5.355-9.294
			c3.209-0.601,5.909-2.389,7.458-5.067c1.921-3.322,1.804-7.499-0.316-11.176l-25.171-43.68c3.331-0.548,6.141-2.363,7.732-5.118
			c1.919-3.323,1.801-7.501-0.318-11.175l-36.132-62.703c-2.12-3.68-5.679-5.876-9.518-5.876s-7.398,2.197-9.517,5.876
			l-11.979,20.787l-9.882-17.149h2.105c4.245,0,7.928-1.984,9.848-5.308c1.919-3.323,1.801-7.501-0.318-11.176l-46.856-81.316
			c-2.12-3.68-5.679-5.878-9.518-5.878c-3.839,0-7.398,2.197-9.517,5.877l-46.859,81.316c-2.118,3.676-2.237,7.854-0.318,11.176
			c1.922,3.324,5.603,5.308,9.849,5.308h2.109l-5.183,8.993l-29.341-50.919l34.448-59.786c2.161-3.75,0.872-8.542-2.878-10.703
			c-3.751-2.161-8.543-0.872-10.702,2.878l-29.959,51.995L221.884,85.75c-2.161-3.75-6.953-5.037-10.703-2.878
			c-3.75,2.161-5.039,6.953-2.878,10.703l34.451,59.786l-82.644,143.422l-21.106-36.629c3.648-0.386,6.748-2.273,8.455-5.226
			c1.919-3.322,1.802-7.499-0.316-11.176l-38.078-66.08c-2.12-3.68-5.679-5.879-9.518-5.879c-3.84,0-7.398,2.197-9.517,5.876
			l-38.082,66.084c-2.117,3.675-2.235,7.852-0.316,11.175c1.707,2.954,4.808,4.841,8.455,5.227l-26.726,46.379
			c-2.117,3.676-2.235,7.853-0.315,11.175c1.66,2.872,4.638,4.737,8.154,5.192L9.211,378.419c-2.117,3.676-2.235,7.853-0.315,11.175
			c1.92,3.324,5.603,5.308,9.848,5.308h56.7v30.974H9.52c-4.328,0-7.837,3.509-7.837,7.837c0,4.328,3.509,7.837,7.837,7.837h80.733
			H502.48c4.329,0,7.837-3.509,7.837-7.837C510.317,429.385,506.808,425.876,502.48,425.876z M462.096,315.133H370.53l25.526-44.298
			h40.513L462.096,315.133z M353.298,313.646l-24.733-42.921h49.464L353.298,313.646z M416.313,206.523l28.027,48.638h-56.055
			L416.313,206.523z M334.367,179.613h-32.925l38.754-67.252l38.752,67.252h-15.324c-4.329,0-7.837,3.509-7.837,7.837
			c0,4.328,3.508,7.837,7.837,7.837h3.221l18.926,32.844l-15.11,26.221c-0.133,0.23-0.234,0.467-0.35,0.7h-50.779l-20.214-35.078
			l14.224-24.688h20.824c4.329,0,7.837-3.509,7.837-7.837C342.204,183.122,338.696,179.613,334.367,179.613z M99.547,192.545
			l29.975,52.017H69.571L99.547,192.545z M26.834,379.229l32.392-56.212H98.22c4.328,0,7.837-3.509,7.837-7.837
			c0-4.328-3.509-7.837-7.837-7.837H50.985l27.145-47.106h42.832l27.143,47.106h-21.673c-4.328,0-7.837,3.509-7.837,7.837
			c0,4.328,3.509,7.837,7.837,7.837h13.433l2.564,4.45l-29.827,51.762H26.834z M91.118,416.515v-21.614h12.454L91.118,416.515z
			 M269.409,425.876L269.409,425.876h-77.615c11.405-12.228,23.312-30.856,35.888-56.088c10.46-20.989,18.961-41.755,24.164-55.235
			c4.057,10.511,10.127,25.462,17.563,41.49V425.876z M285.083,425.876v-38.833c9.278,16.673,18.195,29.58,26.826,38.833H285.083z
			 M336.568,425.875L336.568,425.875c-9.155-4.641-24.696-19.3-46.47-62.956c-16.895-33.875-28.936-68.289-29.057-68.633
			c-2.387-6.856-7.642-7.39-9.196-7.39c-1.554,0-6.811,0.533-9.196,7.388c-0.12,0.344-12.162,34.759-29.058,68.633
			c-21.774,43.656-37.315,58.315-46.472,62.957h-63.306l148.032-256.899l148.033,256.899H336.568z M427.178,425.876h-0.001h-9.21
			l-7.651-13.277v-13.121h16.862V425.876z"/>
	</g>
</g>
<g>
</g>
<g>
</g>
<g>
</g>
<g>
</g>
<g>
</g>
<g>
</g>
<g>
</g>
<g>
</g>
<g>
</g>
<g>
</g>
<g>
</g>
<g>
</g>
<g>
</g>
<g>
</g>
<g>
</g>
</svg>
